<svg width="60" height="56" viewBox="0 0 60 56" fill="none" xmlns="http://www.w3.org/2000/svg">
<path d="M0 48.1365V6C0 5.44772 0.447716 5 1 5H5.23386C6.04338 5 6.81854 5.32715 7.38328 5.90715L24.1494 23.1264C24.6948 23.6866 25 24.4375 25 25.2193V48.1365C25 50.8261 21.7337 52.1568 19.8541 50.233L18.2223 48.5627C15.0837 45.3503 9.91629 45.3503 6.77773 48.5627L5.14585 50.233C3.26628 52.1568 0 50.8261 0 48.1365Z" fill="#37C390"/>
<path d="M60 7.36348V49.5C60 50.0523 59.5523 50.5 59 50.5H54.7661C53.9566 50.5 53.1815 50.1728 52.6167 49.5928L35.8506 32.3736C35.3052 31.8134 35 31.0625 35 30.2807V7.36348C35 4.6739 38.2663 3.34317 40.1459 5.26698L41.7777 6.93727C44.9163 10.1497 50.0837 10.1497 53.2223 6.93727L54.8541 5.26698C56.7337 3.34317 60 4.67391 60 7.36348Z" fill="#FFC500"/>
<path d="M32 17V28L17 13H28C30.2091 13 32 14.7909 32 17Z" fill="#F65428"/>
<path d="M29 40V29L44 44H33C30.7909 44 29 42.2091 29 40Z" fill="#F65428"/>
</svg>
