<svg width="153" height="74" viewBox="0 0 153 74" fill="none" xmlns="http://www.w3.org/2000/svg">
<path d="M5.26917 72.1636C3.33462 72.1636 1.96007 71.1454 1.14553 69.1091C0.381893 67.0727 7.44435e-05 63.8145 7.44435e-05 59.3345C7.44435e-05 52.7163 0.941893 46.4291 2.82553 40.4727C3.28371 38.9963 4.02189 37.9273 5.04007 37.2654C6.10917 36.5527 7.58553 36.1963 9.46917 36.1963C10.4873 36.1963 11.2001 36.3236 11.6073 36.5782C12.0146 36.8327 12.2183 37.3163 12.2183 38.0291C12.2183 38.8436 11.8364 40.6763 11.0728 43.5273C10.5637 45.5636 10.1564 47.3454 9.85098 48.8727C9.54553 50.4 9.29098 52.2836 9.08735 54.5236C10.7673 50.1454 12.651 46.5818 14.7383 43.8327C16.8255 41.0836 18.8619 39.1236 20.8473 37.9527C22.8837 36.7818 24.7419 36.1963 26.4219 36.1963C29.731 36.1963 31.3855 37.8509 31.3855 41.16C31.3855 43.1454 30.8255 46.7345 29.7055 51.9273C28.7383 56.3563 28.2546 59.2836 28.2546 60.7091C28.2546 62.7454 28.9928 63.7636 30.4692 63.7636C31.4873 63.7636 32.6837 63.1527 34.0583 61.9309C35.4837 60.6582 37.3674 58.6218 39.7092 55.8218C40.3201 55.1091 41.0073 54.7527 41.771 54.7527C42.4328 54.7527 42.9419 55.0582 43.2983 55.6691C43.7055 56.28 43.9092 57.12 43.9092 58.1891C43.9092 60.2254 43.4255 61.8036 42.4583 62.9236C40.2692 65.6218 37.9019 67.8363 35.3564 69.5673C32.8619 71.2982 30.011 72.1636 26.8037 72.1636C24.2074 72.1636 22.2473 71.4254 20.9237 69.9491C19.6001 68.4218 18.9383 66.2327 18.9383 63.3818C18.9383 61.9563 19.2946 59.4109 20.0073 55.7454C20.6692 52.5382 21.0001 50.3236 21.0001 49.1018C21.0001 48.2873 20.7201 47.88 20.1601 47.88C19.4983 47.88 18.5564 48.7454 17.3346 50.4763C16.1637 52.1563 14.9419 54.3963 13.6692 57.1963C12.4473 59.9963 11.4546 62.9491 10.691 66.0545C10.131 68.4473 9.46917 70.0763 8.70553 70.9418C7.9928 71.7563 6.84735 72.1636 5.26917 72.1636ZM47.2981 31.1563C45.16 31.1563 43.5563 30.6727 42.4872 29.7054C41.4181 28.6872 40.8836 27.2872 40.8836 25.5054C40.8836 23.7236 41.5709 22.2472 42.9454 21.0763C44.3709 19.8545 46.1272 19.2436 48.2145 19.2436C50.0981 19.2436 51.6254 19.7018 52.7963 20.6182C53.9672 21.5345 54.5527 22.8327 54.5527 24.5127C54.5527 26.5491 53.8909 28.1782 52.5672 29.4C51.2436 30.5709 49.4872 31.1563 47.2981 31.1563ZM46.6872 72.1636C43.3781 72.1636 40.96 70.9927 39.4327 68.6509C37.9563 66.3091 37.2181 63.2036 37.2181 59.3345C37.2181 57.0436 37.4981 54.1163 38.0581 50.5527C38.6691 46.9382 39.4327 43.5782 40.3491 40.4727C40.8072 38.8436 41.4181 37.7236 42.1818 37.1127C42.9454 36.5018 44.1672 36.1963 45.8472 36.1963C48.4436 36.1963 49.7418 37.0618 49.7418 38.7927C49.7418 40.0654 49.2581 43.0182 48.2909 47.6509C47.0691 53.2509 46.4581 57.0436 46.4581 59.0291C46.4581 60.5563 46.6618 61.7273 47.0691 62.5418C47.4763 63.3563 48.1636 63.7636 49.1309 63.7636C50.0472 63.7636 51.1927 63.1273 52.5672 61.8545C53.9418 60.5818 55.7745 58.5709 58.0654 55.8218C58.6763 55.1091 59.3636 54.7527 60.1272 54.7527C60.7891 54.7527 61.2981 55.0582 61.6545 55.6691C62.0618 56.28 62.2654 57.12 62.2654 58.1891C62.2654 60.2254 61.7818 61.8036 60.8145 62.9236C55.7745 69.0836 51.0654 72.1636 46.6872 72.1636ZM96.2762 48.3382C96.938 48.3382 97.4471 48.6691 97.8035 49.3309C98.1599 49.9927 98.338 50.8327 98.338 51.8509C98.338 53.1236 98.1599 54.1163 97.8035 54.8291C97.4471 55.4909 96.8871 55.9491 96.1235 56.2036C93.0689 57.2727 89.7089 57.8836 86.0435 58.0363C85.0253 62.2618 83.0908 65.6727 80.2399 68.2691C77.4399 70.8654 74.3344 72.1636 70.9235 72.1636C65.7817 72.1636 62.0399 70.2036 59.698 66.2836C57.3562 62.3636 56.1853 56.6873 56.1853 49.2545C56.1853 42.6873 56.9999 35.56 58.6289 27.8727C60.258 20.1345 62.6253 13.5672 65.7308 8.17088C68.8871 2.72361 72.6289 -2.64948e-05 76.9562 -2.64948e-05C79.298 -2.64948e-05 81.1817 1.01816 82.6071 3.05452C84.0326 5.03997 84.7453 7.63634 84.7453 10.8436C84.7453 15.0182 83.9562 19.1672 82.378 23.2909C80.7999 27.4145 78.178 31.7418 74.5126 36.2727C77.9235 36.5273 80.698 37.9527 82.8362 40.5491C84.9744 43.0945 86.2471 46.2509 86.6544 50.0182C89.0471 49.8654 91.898 49.3563 95.2071 48.4909C95.5126 48.3891 95.8689 48.3382 96.2762 48.3382ZM75.1999 7.55998C74.1817 7.55998 73.0617 9.08725 71.8399 12.1418C70.6689 15.1454 69.5744 19.2436 68.5562 24.4363C67.538 29.6291 66.7744 35.3054 66.2653 41.4654C69.6253 35.3054 72.298 29.8836 74.2835 25.2C76.3199 20.4654 77.338 16.2654 77.338 12.6C77.338 10.9709 77.1344 9.72361 76.7271 8.85816C76.3708 7.9927 75.8617 7.55998 75.1999 7.55998ZM71.2289 64.0691C72.8071 64.0691 74.2071 63.4073 75.4289 62.0836C76.6508 60.76 77.4653 58.8509 77.8726 56.3563C76.2944 55.2873 75.0726 53.8873 74.2071 52.1563C73.3926 50.4254 72.9853 48.5927 72.9853 46.6582C72.9853 45.9454 73.0871 44.9782 73.2908 43.7563H73.0617C70.9744 43.7563 69.218 44.8 67.7926 46.8873C66.418 48.9236 65.7308 51.6727 65.7308 55.1345C65.7308 58.0363 66.2653 60.2509 67.3344 61.7782C68.4544 63.3054 69.7526 64.0691 71.2289 64.0691ZM100.701 72.1636C97.5445 72.1636 95.0245 71.0182 93.1409 68.7273C91.2572 66.4363 90.3154 63.4327 90.3154 59.7163C90.3154 55.6436 91.2572 51.8 93.1409 48.1854C95.0245 44.52 97.5191 41.5927 100.625 39.4036C103.781 37.1636 107.115 36.0436 110.628 36.0436C111.748 36.0436 112.486 36.2727 112.843 36.7309C113.25 37.1382 113.581 37.9018 113.835 39.0218C114.905 38.8182 116.025 38.7163 117.195 38.7163C119.69 38.7163 120.937 39.6073 120.937 41.3891C120.937 42.4582 120.555 45.0036 119.792 49.0254C118.621 54.88 118.035 58.9527 118.035 61.2436C118.035 62.0073 118.214 62.6182 118.57 63.0763C118.977 63.5345 119.486 63.7636 120.097 63.7636C121.065 63.7636 122.235 63.1527 123.61 61.9309C124.985 60.6582 126.843 58.6218 129.185 55.8218C129.795 55.1091 130.483 54.7527 131.246 54.7527C131.908 54.7527 132.417 55.0582 132.774 55.6691C133.181 56.28 133.385 57.12 133.385 58.1891C133.385 60.2254 132.901 61.8036 131.934 62.9236C129.846 65.52 127.632 67.7091 125.29 69.4909C122.948 71.2727 120.683 72.1636 118.494 72.1636C116.814 72.1636 115.261 71.6036 113.835 70.4836C112.461 69.3127 111.417 67.7345 110.705 65.7491C108.057 70.0254 104.723 72.1636 100.701 72.1636ZM103.45 64.4509C104.57 64.4509 105.639 63.7891 106.657 62.4654C107.675 61.1418 108.414 59.3854 108.872 57.1963L111.697 43.1454C109.559 43.1963 107.574 44.0109 105.741 45.5891C103.959 47.1163 102.534 49.1527 101.465 51.6982C100.395 54.2436 99.8609 56.9418 99.8609 59.7927C99.8609 61.3709 100.166 62.5418 100.777 63.3054C101.439 64.0691 102.33 64.4509 103.45 64.4509ZM140.945 73.8436C138.298 73.8436 136.262 73.2327 134.836 72.0109C133.462 70.7891 132.775 69.4145 132.775 67.8873C132.775 66.5636 133.258 65.4182 134.225 64.4509C135.193 63.4836 136.618 63 138.502 63C139.164 63 139.927 63.0763 140.793 63.2291C141.709 63.3309 142.396 63.4073 142.855 63.4582C142.804 62.1345 142.498 60.8873 141.938 59.7163C141.429 58.5454 140.767 57.4254 139.953 56.3563C139.138 55.2363 138.375 54.2691 137.662 53.4545C136.084 56.4582 134.505 58.9527 132.927 60.9382C131.4 62.9236 129.72 64.8073 127.887 66.5891C126.971 67.5054 126.004 67.9636 124.985 67.9636C124.171 67.9636 123.509 67.6836 123 67.1236C122.491 66.5127 122.236 65.7745 122.236 64.9091C122.236 63.8909 122.593 62.9491 123.305 62.0836L124.298 60.8618C127.098 57.4 129.211 54.5491 130.636 52.3091C131.553 50.8327 132.469 49.0763 133.385 47.04C134.353 45.0036 135.6 42.2291 137.127 38.7163C138.095 36.4763 140.105 35.3563 143.16 35.3563C144.585 35.3563 145.578 35.4836 146.138 35.7382C146.698 35.9927 146.978 36.4 146.978 36.96C146.978 37.2654 146.876 37.7491 146.673 38.4109C146.469 39.0727 146.189 39.7345 145.833 40.3963C144.916 42.2291 144.458 43.7818 144.458 45.0545C144.458 45.8182 144.713 46.6582 145.222 47.5745C145.782 48.4909 146.622 49.6363 147.742 51.0109C149.371 53.1491 150.593 54.9818 151.407 56.5091C152.273 57.9854 152.705 59.6145 152.705 61.3963C152.705 63.5345 152.196 65.5709 151.178 67.5054C150.211 69.3891 148.836 70.9163 147.055 72.0873C145.273 73.2582 143.236 73.8436 140.945 73.8436Z" fill="#0E121B"/>
</svg>
